# xmcd
#
# Track frame offsets:
#	150
#	8245
#	41641
#	75717
#	104812
#	130022
#	159486
#	180900
#	200991
#	224148
#	252466
#	279430
#
# Disc length: 4019 seconds
#
# Revision: 1
# Processed by: cddbd v1.5.2PL0 Copyright (c) Steve Scherf et al.
# Submitted via: EZCDAudioConverter 8.0.2.1
#
DISCID=b10fb10c
DTITLE=Toàn Nguyễn - Trịnh Công Sơn 1
DYEAR=2009
DGENRE=Traditional Country
TTITLE0=Intro
TTITLE1=Hạ trắng
TTITLE2=Biển nhớ
TTITLE3=Hát cho người nằm xuống
TTITLE4=Một cõi đi về
TTITLE5=Như một lời chia tay
TTITLE6=Diễm xưa
TTITLE7=Ru đời đi nhé
TTITLE8=Ra ta ngậm ngùi
TTITLE9=Tình xa
TTITLE10=Phôi pha
TTITLE11=Em còn nhớ hay em đã quên
EXTD=
EXTT0=
EXTT1=
EXTT2=
EXTT3=
EXTT4=
EXTT5=
EXTT6=
EXTT7=
EXTT8=
EXTT9=
EXTT10=
EXTT11=
PLAYORDER=
